# Blender v2.93.3 OBJ File: ''
# www.blender.org
mtllib sphere.mtl
o Cube
v 1.000000 1.000000 -1.000000
v 1.000000 -1.000000 -1.000000
v 1.000000 1.000000 1.000000
v 1.000000 -1.000000 1.000000
v -1.000000 1.000000 -1.000000
v -1.000000 -1.000000 -1.000000
v -1.000000 1.000000 1.000000
v -1.000000 -1.000000 1.000000
v -1.163863 -1.163863 -0.524155
v -1.220250 -1.220250 0.000000
v -1.163863 -1.163863 0.524155
v 0.524155 -1.163863 -1.163863
v 0.000000 -1.220250 -1.220250
v -0.524155 -1.163863 -1.163863
v 1.163863 0.524155 -1.163863
v 1.220250 0.000000 -1.220250
v 1.163863 -0.524155 -1.163863
v -1.163863 -0.524155 1.163863
v -1.220250 0.000000 1.220250
v -1.163863 0.524155 1.163863
v 1.163863 0.524155 1.163863
v 1.220250 0.000000 1.220250
v 1.163863 -0.524155 1.163863
v -1.163863 0.524155 -1.163863
v -1.220250 0.000000 -1.220250
v -1.163863 -0.524155 -1.163863
v 0.524155 1.163863 1.163863
v 0.000000 1.220250 1.220250
v -0.524155 1.163863 1.163863
v 1.163863 1.163863 -0.524155
v 1.220250 1.220250 0.000000
v 1.163863 1.163863 0.524155
v -0.524155 -1.163863 1.163863
v 0.000000 -1.220250 1.220250
v 0.524155 -1.163863 1.163863
v -1.163863 1.163863 0.524155
v -1.220250 1.220250 0.000000
v -1.163863 1.163863 -0.524155
v -0.524155 1.163863 -1.163863
v 0.000000 1.220250 -1.220250
v 0.524155 1.163863 -1.163863
v 1.163863 -1.163863 0.524155
v 1.220250 -1.220250 0.000000
v 1.163863 -1.163863 -0.524155
v -0.622118 -0.668623 -1.452800
v 0.000000 -0.718990 -1.553534
v 0.622118 -0.668623 -1.452800
v -0.659389 0.000000 -1.586852
v 0.000000 0.000000 -1.715585
v 0.659389 0.000000 -1.586852
v -0.622118 0.668623 -1.452800
v 0.000000 0.718990 -1.553534
v 0.622118 0.668623 -1.452800
v 1.452800 -0.668623 -0.622118
v 1.553534 -0.718990 0.000000
v 1.452800 -0.668623 0.622118
v 1.586852 0.000000 -0.659389
v 1.715585 0.000000 0.000000
v 1.586852 0.000000 0.659389
v 1.452800 0.668623 -0.622118
v 1.553534 0.718990 0.000000
v 1.452800 0.668623 0.622118
v -0.668623 -1.452800 -0.622118
v -0.718990 -1.553534 0.000000
v -0.668623 -1.452800 0.622118
v 0.000000 -1.586852 -0.659389
v 0.000000 -1.715585 0.000000
v 0.000000 -1.586852 0.659389
v 0.668623 -1.452800 -0.622118
v 0.718990 -1.553534 0.000000
v 0.668623 -1.452800 0.622118
v -1.452800 -0.668623 0.622118
v -1.553534 -0.718990 0.000000
v -1.452800 -0.668623 -0.622118
v -1.586852 0.000000 0.659389
v -1.715585 0.000000 0.000000
v -1.586852 0.000000 -0.659389
v -1.452800 0.668623 0.622118
v -1.553534 0.718990 0.000000
v -1.452800 0.668623 -0.622118
v 0.622118 -0.668623 1.452800
v 0.000000 -0.718990 1.553534
v -0.622118 -0.668623 1.452800
v 0.659389 0.000000 1.586852
v 0.000000 0.000000 1.715585
v -0.659389 0.000000 1.586852
v 0.622118 0.668623 1.452800
v 0.000000 0.718990 1.553534
v -0.622118 0.668623 1.452800
v 0.668623 1.452800 -0.622118
v 0.718990 1.553534 0.000000
v 0.668623 1.452800 0.622118
v 0.000000 1.586852 -0.659389
v 0.000000 1.715585 0.000000
v 0.000000 1.586852 0.659389
v -0.668623 1.452800 -0.622118
v -0.718990 1.553534 0.000000
v -0.668623 1.452800 0.622118
vt 0.812500 0.687500
vt 0.875000 0.687500
vt 0.875000 0.750000
vt 0.812500 0.750000
vt 0.562500 0.937500
vt 0.625000 0.937500
vt 0.625000 1.000000
vt 0.562500 1.000000
vt 0.562500 0.187500
vt 0.625000 0.187500
vt 0.625000 0.250000
vt 0.562500 0.250000
vt 0.312500 0.687500
vt 0.375000 0.687500
vt 0.375000 0.750000
vt 0.312500 0.750000
vt 0.562500 0.687500
vt 0.625000 0.687500
vt 0.625000 0.750000
vt 0.562500 0.750000
vt 0.562500 0.437500
vt 0.625000 0.437500
vt 0.625000 0.500000
vt 0.562500 0.500000
vt 0.375000 0.437500
vt 0.437500 0.437500
vt 0.437500 0.500000
vt 0.375000 0.500000
vt 0.500000 0.437500
vt 0.500000 0.500000
vt 0.375000 0.250000
vt 0.437500 0.250000
vt 0.437500 0.312500
vt 0.375000 0.312500
vt 0.437500 0.375000
vt 0.375000 0.375000
vt 0.500000 0.250000
vt 0.500000 0.312500
vt 0.500000 0.375000
vt 0.562500 0.312500
vt 0.562500 0.375000
vt 0.625000 0.312500
vt 0.625000 0.375000
vt 0.437500 0.687500
vt 0.437500 0.750000
vt 0.500000 0.687500
vt 0.500000 0.750000
vt 0.437500 0.562500
vt 0.375000 0.562500
vt 0.437500 0.625000
vt 0.375000 0.625000
vt 0.500000 0.562500
vt 0.500000 0.625000
vt 0.562500 0.562500
vt 0.562500 0.625000
vt 0.625000 0.562500
vt 0.625000 0.625000
vt 0.125000 0.687500
vt 0.187500 0.687500
vt 0.187500 0.750000
vt 0.125000 0.750000
vt 0.250000 0.687500
vt 0.250000 0.750000
vt 0.125000 0.500000
vt 0.187500 0.500000
vt 0.187500 0.562500
vt 0.125000 0.562500
vt 0.187500 0.625000
vt 0.125000 0.625000
vt 0.250000 0.500000
vt 0.250000 0.562500
vt 0.250000 0.625000
vt 0.312500 0.500000
vt 0.312500 0.562500
vt 0.312500 0.625000
vt 0.375000 0.187500
vt 0.437500 0.187500
vt 0.500000 0.187500
vt 0.375000 0.000000
vt 0.437500 0.000000
vt 0.437500 0.062500
vt 0.375000 0.062500
vt 0.437500 0.125000
vt 0.375000 0.125000
vt 0.500000 0.000000
vt 0.500000 0.062500
vt 0.500000 0.125000
vt 0.562500 0.000000
vt 0.562500 0.062500
vt 0.562500 0.125000
vt 0.625000 0.000000
vt 0.625000 0.062500
vt 0.625000 0.125000
vt 0.375000 0.937500
vt 0.437500 0.937500
vt 0.437500 1.000000
vt 0.375000 1.000000
vt 0.500000 0.937500
vt 0.500000 1.000000
vt 0.437500 0.812500
vt 0.375000 0.812500
vt 0.437500 0.875000
vt 0.375000 0.875000
vt 0.500000 0.812500
vt 0.500000 0.875000
vt 0.562500 0.812500
vt 0.562500 0.875000
vt 0.625000 0.812500
vt 0.625000 0.875000
vt 0.687500 0.687500
vt 0.687500 0.750000
vt 0.750000 0.687500
vt 0.750000 0.750000
vt 0.687500 0.500000
vt 0.687500 0.562500
vt 0.687500 0.625000
vt 0.750000 0.500000
vt 0.750000 0.562500
vt 0.750000 0.625000
vt 0.812500 0.500000
vt 0.812500 0.562500
vt 0.812500 0.625000
vt 0.875000 0.500000
vt 0.875000 0.562500
vt 0.875000 0.625000
vn -0.4739 0.7422 0.4739
vn -0.4739 0.4739 0.7422
vn -0.7422 0.4739 -0.4739
vn 0.4739 -0.7422 0.4739
vn 0.7422 0.4739 0.4739
vn 0.4739 0.4739 -0.7422
vn 0.4739 -0.4739 -0.7422
vn 0.5200 -0.1743 -0.8362
vn 0.5200 0.1743 -0.8362
vn -0.4739 -0.4739 -0.7422
vn -0.1634 -0.5340 -0.8295
vn 0.1634 -0.5340 -0.8295
vn -0.5200 -0.1743 -0.8362
vn -0.1803 -0.2099 -0.9610
vn 0.1803 -0.2099 -0.9610
vn -0.5200 0.1743 -0.8362
vn -0.1803 0.2099 -0.9610
vn 0.1803 0.2099 -0.9610
vn -0.4739 0.4739 -0.7422
vn -0.1634 0.5340 -0.8295
vn 0.1634 0.5340 -0.8295
vn 0.7422 -0.4739 0.4739
vn 0.8362 -0.1743 0.5200
vn 0.8362 0.1743 0.5200
vn 0.7422 -0.4739 -0.4739
vn 0.8295 -0.5340 -0.1634
vn 0.8295 -0.5340 0.1634
vn 0.8362 -0.1743 -0.5200
vn 0.9610 -0.2099 -0.1803
vn 0.9610 -0.2099 0.1803
vn 0.8362 0.1743 -0.5200
vn 0.9610 0.2099 -0.1803
vn 0.9610 0.2099 0.1803
vn 0.7422 0.4739 -0.4739
vn 0.8295 0.5340 -0.1634
vn 0.8295 0.5340 0.1634
vn -0.4739 -0.7422 0.4739
vn -0.1743 -0.8362 0.5200
vn 0.1743 -0.8362 0.5200
vn -0.4739 -0.7422 -0.4739
vn -0.5340 -0.8295 -0.1634
vn -0.5340 -0.8295 0.1634
vn -0.1743 -0.8362 -0.5200
vn -0.2099 -0.9610 -0.1803
vn -0.2099 -0.9610 0.1803
vn 0.1743 -0.8362 -0.5200
vn 0.2099 -0.9610 -0.1803
vn 0.2099 -0.9610 0.1803
vn 0.4739 -0.7422 -0.4739
vn 0.5340 -0.8295 -0.1634
vn 0.5340 -0.8295 0.1634
vn -0.7422 -0.4739 -0.4739
vn -0.8362 -0.1743 -0.5200
vn -0.8362 0.1743 -0.5200
vn -0.7422 -0.4739 0.4739
vn -0.8295 -0.5340 0.1634
vn -0.8295 -0.5340 -0.1634
vn -0.8362 -0.1743 0.5200
vn -0.9610 -0.2099 0.1803
vn -0.9610 -0.2099 -0.1803
vn -0.8362 0.1743 0.5200
vn -0.9610 0.2099 0.1803
vn -0.9610 0.2099 -0.1803
vn -0.7422 0.4739 0.4739
vn -0.8295 0.5340 0.1634
vn -0.8295 0.5340 -0.1634
vn -0.4739 -0.4739 0.7422
vn -0.5200 -0.1743 0.8362
vn -0.5200 0.1743 0.8362
vn 0.4739 -0.4739 0.7422
vn 0.1634 -0.5340 0.8295
vn -0.1634 -0.5340 0.8295
vn 0.5200 -0.1743 0.8362
vn 0.1803 -0.2099 0.9610
vn -0.1803 -0.2099 0.9610
vn 0.5200 0.1743 0.8362
vn 0.1803 0.2099 0.9610
vn -0.1803 0.2099 0.9610
vn 0.4739 0.4739 0.7422
vn 0.1634 0.5340 0.8295
vn -0.1634 0.5340 0.8295
vn 0.4739 0.7422 0.4739
vn 0.1743 0.8362 0.5200
vn -0.1743 0.8362 0.5200
vn 0.4739 0.7422 -0.4739
vn 0.5340 0.8295 -0.1634
vn 0.5340 0.8295 0.1634
vn 0.1743 0.8362 -0.5200
vn 0.2099 0.9610 -0.1803
vn 0.2099 0.9610 0.1803
vn -0.1743 0.8362 -0.5200
vn -0.2099 0.9610 -0.1803
vn -0.2099 0.9610 0.1803
vn -0.4739 0.7422 -0.4739
vn -0.5340 0.8295 -0.1634
vn -0.5340 0.8295 0.1634
usemtl Material
s off
f 98/1/1 36/2/1 7/3/1 29/4/1
f 89/5/2 29/6/2 7/7/2 20/8/2
f 80/9/3 38/10/3 5/11/3 24/12/3
f 71/13/4 42/14/4 4/15/4 35/16/4
f 62/17/5 32/18/5 3/19/5 21/20/5
f 53/21/6 41/22/6 1/23/6 15/24/6
f 12/25/7 47/26/7 17/27/7 2/28/7
f 47/26/8 50/29/8 16/30/8 17/27/8
f 50/29/9 53/21/9 15/24/9 16/30/9
f 6/31/10 26/32/10 45/33/10 14/34/10
f 14/34/11 45/33/11 46/35/11 13/36/11
f 13/36/12 46/35/12 47/26/12 12/25/12
f 26/32/13 25/37/13 48/38/13 45/33/13
f 45/33/14 48/38/14 49/39/14 46/35/14
f 46/35/15 49/39/15 50/29/15 47/26/15
f 25/37/16 24/12/16 51/40/16 48/38/16
f 48/38/17 51/40/17 52/41/17 49/39/17
f 49/39/18 52/41/18 53/21/18 50/29/18
f 24/12/19 5/11/19 39/42/19 51/40/19
f 51/40/20 39/42/20 40/43/20 52/41/20
f 52/41/21 40/43/21 41/22/21 53/21/21
f 42/14/22 56/44/22 23/45/22 4/15/22
f 56/44/23 59/46/23 22/47/23 23/45/23
f 59/46/24 62/17/24 21/20/24 22/47/24
f 2/28/25 17/27/25 54/48/25 44/49/25
f 44/49/26 54/48/26 55/50/26 43/51/26
f 43/51/27 55/50/27 56/44/27 42/14/27
f 17/27/28 16/30/28 57/52/28 54/48/28
f 54/48/29 57/52/29 58/53/29 55/50/29
f 55/50/30 58/53/30 59/46/30 56/44/30
f 16/30/31 15/24/31 60/54/31 57/52/31
f 57/52/32 60/54/32 61/55/32 58/53/32
f 58/53/33 61/55/33 62/17/33 59/46/33
f 15/24/34 1/23/34 30/56/34 60/54/34
f 60/54/35 30/56/35 31/57/35 61/55/35
f 61/55/36 31/57/36 32/18/36 62/17/36
f 11/58/37 65/59/37 33/60/37 8/61/37
f 65/59/38 68/62/38 34/63/38 33/60/38
f 68/62/39 71/13/39 35/16/39 34/63/39
f 6/64/40 14/65/40 63/66/40 9/67/40
f 9/67/41 63/66/41 64/68/41 10/69/41
f 10/69/42 64/68/42 65/59/42 11/58/42
f 14/65/43 13/70/43 66/71/43 63/66/43
f 63/66/44 66/71/44 67/72/44 64/68/44
f 64/68/45 67/72/45 68/62/45 65/59/45
f 13/70/46 12/73/46 69/74/46 66/71/46
f 66/71/47 69/74/47 70/75/47 67/72/47
f 67/72/48 70/75/48 71/13/48 68/62/48
f 12/73/49 2/28/49 44/49/49 69/74/49
f 69/74/50 44/49/50 43/51/50 70/75/50
f 70/75/51 43/51/51 42/14/51 71/13/51
f 9/76/52 74/77/52 26/32/52 6/31/52
f 74/77/53 77/78/53 25/37/53 26/32/53
f 77/78/54 80/9/54 24/12/54 25/37/54
f 8/79/55 18/80/55 72/81/55 11/82/55
f 11/82/56 72/81/56 73/83/56 10/84/56
f 10/84/57 73/83/57 74/77/57 9/76/57
f 18/80/58 19/85/58 75/86/58 72/81/58
f 72/81/59 75/86/59 76/87/59 73/83/59
f 73/83/60 76/87/60 77/78/60 74/77/60
f 19/85/61 20/88/61 78/89/61 75/86/61
f 75/86/62 78/89/62 79/90/62 76/87/62
f 76/87/63 79/90/63 80/9/63 77/78/63
f 20/88/64 7/91/64 36/92/64 78/89/64
f 78/89/65 36/92/65 37/93/65 79/90/65
f 79/90/66 37/93/66 38/10/66 80/9/66
f 33/94/67 83/95/67 18/96/67 8/97/67
f 83/95/68 86/98/68 19/99/68 18/96/68
f 86/98/69 89/5/69 20/8/69 19/99/69
f 4/15/70 23/45/70 81/100/70 35/101/70
f 35/101/71 81/100/71 82/102/71 34/103/71
f 34/103/72 82/102/72 83/95/72 33/94/72
f 23/45/73 22/47/73 84/104/73 81/100/73
f 81/100/74 84/104/74 85/105/74 82/102/74
f 82/102/75 85/105/75 86/98/75 83/95/75
f 22/47/76 21/20/76 87/106/76 84/104/76
f 84/104/77 87/106/77 88/107/77 85/105/77
f 85/105/78 88/107/78 89/5/78 86/98/78
f 21/20/79 3/19/79 27/108/79 87/106/79
f 87/106/80 27/108/80 28/109/80 88/107/80
f 88/107/81 28/109/81 29/6/81 89/5/81
f 32/18/82 92/110/82 27/111/82 3/19/82
f 92/110/83 95/112/83 28/113/83 27/111/83
f 95/112/84 98/1/84 29/4/84 28/113/84
f 1/23/85 41/114/85 90/115/85 30/56/85
f 30/56/86 90/115/86 91/116/86 31/57/86
f 31/57/87 91/116/87 92/110/87 32/18/87
f 41/114/88 40/117/88 93/118/88 90/115/88
f 90/115/89 93/118/89 94/119/89 91/116/89
f 91/116/90 94/119/90 95/112/90 92/110/90
f 40/117/91 39/120/91 96/121/91 93/118/91
f 93/118/92 96/121/92 97/122/92 94/119/92
f 94/119/93 97/122/93 98/1/93 95/112/93
f 39/120/94 5/123/94 38/124/94 96/121/94
f 96/121/95 38/124/95 37/125/95 97/122/95
f 97/122/96 37/125/96 36/2/96 98/1/96
